<svg xmlns="http://www.w3.org/2000/svg" width="1024" height="1024" viewBox="0 0 1024 1024" fill="none">
<path d="M610.396 551.767C702.753 607.425 761.982 731.109 761.982 731.109C761.982 731.109 859.359 731.109 558.195 731.109C257.031 731.109 249 640.706 249 517.754C249 496.109 249 496.109 281.626 496.109C353.024 496.109 518.039 496.109 610.396 551.767Z" fill="#006EDC" fill-opacity="0.5" class="logo-wake" />
<path d="M812.04 292.891C812.04 292.891 764.965 420.337 687.745 514.062C703.947 519.618 722.507 528.316 743.993 540.721C792.58 568.772 814.746 581.57 824 586.913C823.881 587.012 764.522 636.147 712.037 643.399C665.381 649.846 609.065 621.067 577.41 603.209C465.257 656.673 311.231 656.675 238.522 656.675C199.569 656.675 199.568 656.675 199.568 623.169C199.568 432.837 209.157 292.891 568.729 292.891H812.04Z" fill="#006EDC" class="logo-body" clip-path="url(#dark-logo-body-clip)" />
<path d="M812.04 292.891C812.04 292.891 764.965 420.337 687.745 514.062C703.947 519.618 722.507 528.316 743.993 540.721C792.58 568.772 814.746 581.57 824 586.913C823.881 587.012 764.522 636.147 712.037 643.399C665.381 649.846 609.065 621.067 577.41 603.209C465.257 656.673 311.231 656.675 238.522 656.675C199.569 656.675 199.568 656.675 199.568 623.169C199.568 432.837 209.157 292.891 568.729 292.891H812.04Z" fill="#006EDC" class="logo-tail" clip-path="url(#dark-logo-tail-clip)" />
<path d="M354.799 450.491C386.212 450.491 411.677 475.956 411.677 507.369C411.677 538.782 386.212 564.248 354.799 564.248C337.255 564.248 321.566 556.304 311.133 543.817C314.464 544.774 317.982 545.288 321.62 545.288C342.562 545.288 359.539 528.311 359.539 507.369C359.539 486.427 342.562 469.45 321.62 469.45C317.982 469.45 314.464 469.964 311.134 470.92C321.567 458.434 337.255 450.491 354.799 450.491Z" fill="white" class="logo-eye" />
<defs><clipPath id="dark-logo-body-clip" clipPathUnits="userSpaceOnUse"><rect x="180" y="270" width="525" height="410" /></clipPath><clipPath id="dark-logo-tail-clip" clipPathUnits="userSpaceOnUse"><rect x="650" y="275" width="205" height="395" /></clipPath></defs></svg>